<svg width="48" height="48" viewBox="0 0 48 48" fill="none" xmlns="http://www.w3.org/2000/svg">
<g clip-path="url(#clip0_4118_47474)">
<path d="M47.26 9.33341C46.336 7.74541 44.636 6.66675 42.6667 6.66675H24V9.33341H47.26ZM0 33.3334H48V36.0001H0V33.3334ZM24 22.6667H48V25.3334H24V22.6667ZM24 17.3334H48V20.0001H24V17.3334ZM0 28.0001H48V30.6667H0V28.0001ZM5.33333 41.3334H42.6667C44.636 41.3334 46.336 40.2547 47.26 38.6667H0.74C1.664 40.2547 3.364 41.3334 5.33333 41.3334ZM24 12.0001H48V14.6667H24V12.0001Z" fill="#B22334"/>
<path d="M0.0906667 36.9053C0.113333 37.0293 0.138667 37.1533 0.169333 37.2746C0.204 37.4093 0.246667 37.5386 0.292 37.6693C0.410667 38.0146 0.554667 38.3479 0.736 38.6599L0.74 38.6666H47.26L47.2627 38.6613C47.4416 38.3469 47.5899 38.016 47.7053 37.6733C47.7931 37.423 47.8609 37.1662 47.908 36.9053C47.9627 36.6119 48 36.3106 48 35.9999H0C0 36.3106 0.0373333 36.6106 0.0906667 36.9053ZM0 30.6666H48V33.3333H0V30.6666ZM0 25.3333V27.9999H48V25.3333H24H0ZM24 19.9999H48V22.6666H24V19.9999ZM24 14.6666H48V17.3333H24V14.6666ZM0.170667 10.7253C0.204 10.5893 0.250667 10.4599 0.293333 10.3293C0.247031 10.4595 0.206107 10.5916 0.170667 10.7253ZM24 11.9999H48C48 11.6893 47.9627 11.3879 47.908 11.0933C47.8613 10.8321 47.7931 10.5752 47.704 10.3253C47.5884 9.981 47.4397 9.64878 47.26 9.33325H24V11.9999Z" fill="#EEEEEE"/>
<path d="M24 6.66675H5.33333C3.91885 6.66675 2.56229 7.22865 1.5621 8.22884C0.561903 9.22904 0 10.5856 0 12.0001L0 25.3334H24V6.66675Z" fill="#3C3B6E"/>
<path d="M2.66797 10.3013L3.49197 10.8999L3.1773 11.8666L3.99997 11.2693L4.82397 11.8666L4.5093 10.8999L5.3333 10.3013H4.31464L3.99997 9.33325L3.68664 10.3013H2.66797ZM5.33464 12.9679L6.15864 13.5666L5.84397 14.5333L6.66664 13.9359L7.49064 14.5333L7.17597 13.5666L7.99997 12.9679H6.9813L6.66664 11.9999L6.3533 12.9679H5.33464ZM10.668 12.9679L11.492 13.5666L11.1773 14.5333L12 13.9359L12.824 14.5333L12.5093 13.5666L13.3333 12.9679H12.3146L12 11.9999L11.6866 12.9679H10.668ZM16.0013 12.9679L16.8253 13.5666L16.5106 14.5333L17.3333 13.9359L18.1573 14.5333L17.8426 13.5666L18.6666 12.9679H17.648L17.3333 11.9999L17.02 12.9679H16.0013ZM5.33464 18.3013L6.15864 18.8999L5.84397 19.8666L6.66664 19.2693L7.49064 19.8666L7.17597 18.8999L7.99997 18.3013H6.9813L6.66664 17.3333L6.3533 18.3013H5.33464ZM10.668 18.3013L11.492 18.8999L11.1773 19.8666L12 19.2693L12.824 19.8666L12.5093 18.8999L13.3333 18.3013H12.3146L12 17.3333L11.6866 18.3013H10.668ZM16.0013 18.3013L16.8253 18.8999L16.5106 19.8666L17.3333 19.2693L18.1573 19.8666L17.8426 18.8999L18.6666 18.3013H17.648L17.3333 17.3333L17.02 18.3013H16.0013ZM8.0013 10.3013L8.8253 10.8999L8.51064 11.8666L9.3333 11.2693L10.1573 11.8666L9.84264 10.8999L10.6666 10.3013H9.64797L9.3333 9.33325L9.01997 10.3013H8.0013ZM13.3346 10.3013L14.1586 10.8999L13.844 11.8666L14.6666 11.2693L15.4906 11.8666L15.176 10.8999L16 10.3013H14.9813L14.6666 9.33325L14.3533 10.3013H13.3346ZM18.668 10.3013L19.492 10.8999L19.1773 11.8666L20 11.2693L20.824 11.8666L20.5093 10.8999L21.3333 10.3013H20.3146L20 9.33325L19.6866 10.3013H18.668ZM2.66797 15.6346L3.49197 16.2333L3.1773 17.1999L3.99997 16.6026L4.82397 17.1999L4.5093 16.2333L5.3333 15.6346H4.31464L3.99997 14.6666L3.68664 15.6346H2.66797ZM8.51064 17.1999L9.3333 16.6026L10.1573 17.1999L9.84264 16.2333L10.6666 15.6346H9.64797L9.3333 14.6666L9.01997 15.6346H8.0013L8.8253 16.2333L8.51064 17.1999ZM13.3346 15.6346L14.1586 16.2333L13.844 17.1999L14.6666 16.6026L15.4906 17.1999L15.176 16.2333L16 15.6346H14.9813L14.6666 14.6666L14.3533 15.6346H13.3346ZM18.668 15.6346L19.492 16.2333L19.1773 17.1999L20 16.6026L20.824 17.1999L20.5093 16.2333L21.3333 15.6346H20.3146L20 14.6666L19.6866 15.6346H18.668ZM2.66797 20.9679L3.49197 21.5666L3.1773 22.5333L3.99997 21.9359L4.82397 22.5333L4.5093 21.5666L5.3333 20.9679H4.31464L3.99997 19.9999L3.68664 20.9679H2.66797ZM8.51064 22.5333L9.3333 21.9359L10.1573 22.5333L9.84264 21.5666L10.6666 20.9679H9.64797L9.3333 19.9999L9.01997 20.9679H8.0013L8.8253 21.5666L8.51064 22.5333ZM13.3346 20.9679L14.1586 21.5666L13.844 22.5333L14.6666 21.9359L15.4906 22.5333L15.176 21.5666L16 20.9679H14.9813L14.6666 19.9999L14.3533 20.9679H13.3346ZM18.668 20.9679L19.492 21.5666L19.1773 22.5333L20 21.9359L20.824 22.5333L20.5093 21.5666L21.3333 20.9679H20.3146L20 19.9999L19.6866 20.9679H18.668Z" fill="white"/>
</g>
<defs>
<clipPath id="clip0_4118_47474">
<rect width="48" height="48" fill="white"/>
</clipPath>
</defs>
</svg>
