<svg width="48" height="48" viewBox="0 0 48 48" fill="none" xmlns="http://www.w3.org/2000/svg">
<g clip-path="url(#clip0_4118_47459)">
<path d="M5.33333 6.66675C3.91885 6.66675 2.56229 7.22865 1.5621 8.22885C0.561903 9.22904 0 10.5856 0 12.0001L0 36.0001C0 37.4146 0.561903 38.7711 1.5621 39.7713C2.56229 40.7715 3.91885 41.3334 5.33333 41.3334H14.6667V6.66675H5.33333Z" fill="#006847"/>
<path d="M42.6666 6.66675H33.3333V41.3334H42.6666C44.0811 41.3334 45.4377 40.7715 46.4379 39.7713C47.4381 38.7711 48 37.4146 48 36.0001V12.0001C48 10.5856 47.4381 9.22904 46.4379 8.22885C45.4377 7.22865 44.0811 6.66675 42.6666 6.66675Z" fill="#CE1126"/>
<path d="M14.6667 6.66675H33.3334V41.3334H14.6667V6.66675Z" fill="#EEEEEE"/>
<path d="M30.6667 24C30.6667 25.7681 29.9643 27.4638 28.714 28.714C27.4638 29.9643 25.7681 30.6667 24 30.6667C22.2319 30.6667 20.5362 29.9643 19.286 28.714C18.0357 27.4638 17.3333 25.7681 17.3333 24H16C16 26.1217 16.8429 28.1566 18.3431 29.6569C19.8434 31.1571 21.8783 32 24 32C26.1217 32 28.1566 31.1571 29.6569 29.6569C31.1571 28.1566 32 26.1217 32 24H30.6667Z" fill="#A6D388"/>
<path d="M18.0573 27.0254C18.0178 26.9472 17.9631 26.8775 17.8965 26.8204C17.8299 26.7634 17.7527 26.7201 17.6692 26.6931C17.5858 26.6661 17.4978 26.6558 17.4104 26.663C17.323 26.6702 17.2379 26.6946 17.16 26.7348C17.0818 26.7745 17.0123 26.8292 16.9553 26.8958C16.8983 26.9624 16.855 27.0396 16.8279 27.1229C16.8008 27.2062 16.7904 27.2941 16.7972 27.3815C16.8041 27.4689 16.8282 27.554 16.868 27.6321C16.988 27.8681 17.12 28.0988 17.2627 28.3201L17.268 28.3295L17.2787 28.3455L17.2827 28.3548L17.284 28.3575L17.2893 28.3641L17.2933 28.3721V28.3748L17.2973 28.3814L17.2987 28.3841L17.3027 28.3908L17.304 28.3935L17.308 28.3988L17.3107 28.4028L17.3133 28.4068L17.3147 28.4108L17.3187 28.4174L17.32 28.4188L17.3227 28.4228L17.3267 28.4308L17.328 28.4335L17.332 28.4401L17.3333 28.4428L17.3427 28.4561V28.4575L17.3493 28.4668C17.4187 28.5695 17.4893 28.6694 17.564 28.7695C17.6161 28.8395 17.6814 28.8985 17.7564 28.9432C17.8313 28.9879 17.9143 29.0173 18.0007 29.0298C18.087 29.0423 18.175 29.0377 18.2595 29.0161C18.3441 28.9945 18.4235 28.9565 18.4933 28.9041C18.5636 28.852 18.6229 28.7865 18.6679 28.7115C18.7129 28.6364 18.7426 28.5532 18.7553 28.4666C18.7681 28.38 18.7636 28.2918 18.7423 28.2069C18.7209 28.1221 18.6829 28.0423 18.6307 27.9721C18.4178 27.6703 18.2262 27.3539 18.0573 27.0254ZM17.3947 24.9161C17.345 24.5481 17.3244 24.1767 17.3333 23.8055C17.3383 23.6288 17.2731 23.4575 17.1518 23.329C17.0306 23.2005 16.8633 23.1253 16.6867 23.1201L16.6387 23.1214C16.4704 23.1288 16.3111 23.1996 16.1929 23.3195C16.0747 23.4395 16.0062 23.5998 16.0013 23.7681C15.9982 23.9063 15.9978 24.0446 16 24.1828V24.3028L16.0013 24.3095V24.3468L16.0027 24.3508L16.0013 24.3534V24.3574L16.0027 24.3601V24.3988L16.004 24.4028V24.4174L16.0053 24.4428L16.0067 24.4548V24.4694C16.0187 24.6828 16.04 24.8948 16.068 25.1055C16.0928 25.2797 16.1855 25.437 16.3259 25.5432C16.4663 25.6494 16.6429 25.6957 16.8173 25.6721C16.905 25.6606 16.9895 25.6319 17.066 25.5877C17.1425 25.5434 17.2096 25.4844 17.2632 25.4142C17.3169 25.3439 17.3561 25.2638 17.3787 25.1783C17.4012 25.0928 17.4066 25.0037 17.3947 24.9161ZM24.4533 30.6494L24.4453 30.6508L24.28 30.6615C23.9642 30.6742 23.6478 30.6648 23.3333 30.6335C23.1574 30.6158 22.9816 30.6687 22.8447 30.7806C22.7078 30.8925 22.621 31.0542 22.6033 31.2301C22.5856 31.406 22.6386 31.5818 22.7505 31.7187C22.8624 31.8556 23.0241 31.9424 23.2 31.9601L23.3667 31.9748L23.372 31.9761L23.3747 31.9748L23.3787 31.9761H23.3813L23.3893 31.9775H23.3973L23.4013 31.9788L23.4107 31.9775L23.4147 31.9788H23.4213L23.4293 31.9801L23.436 31.9815H23.4533L23.4613 31.9828H23.4787C23.6813 31.9961 23.8853 32.0028 24.0907 31.9988H24.1427L24.152 31.9974L24.16 31.9988H24.18L24.1867 31.9974H24.212L24.22 31.9961L24.228 31.9974L24.2293 31.9961L24.2373 31.9974H24.2387L24.2453 31.9961H24.256L24.264 31.9948H24.272L24.2733 31.9961L24.2813 31.9948H24.2907L24.2973 31.9935H24.324L24.3307 31.9921H24.336L24.3413 31.9908L24.3467 31.9921H24.3533L24.3587 31.9908H24.3653C24.4213 31.9895 24.4787 31.9841 24.5347 31.9815C24.7073 31.9675 24.8675 31.886 24.9806 31.7548C25.0937 31.6235 25.1504 31.453 25.1387 31.2801C25.1352 31.1937 25.1148 31.1087 25.0784 31.0302C25.0421 30.9517 24.9906 30.8811 24.9269 30.8225C24.8633 30.7639 24.7887 30.7184 24.7074 30.6887C24.6261 30.659 24.5398 30.6457 24.4533 30.6494ZM21.2013 30.0521C20.8651 29.8962 20.5422 29.7129 20.236 29.5041C20.1176 29.4225 19.9757 29.3817 19.832 29.3881C19.6924 29.394 19.5581 29.4436 19.4482 29.53C19.3383 29.6163 19.2584 29.735 19.2196 29.8693C19.1808 30.0035 19.1853 30.1466 19.2322 30.2782C19.2792 30.4098 19.3663 30.5234 19.4813 30.6028L19.4827 30.6041L19.4907 30.6081L19.4987 30.6161L19.5067 30.6214L19.5147 30.6281C19.8693 30.8695 20.2453 31.0815 20.6373 31.2628C20.7166 31.2998 20.8024 31.3208 20.8898 31.3245C20.9772 31.3282 21.0645 31.3147 21.1467 31.2845C21.2288 31.2544 21.3042 31.2084 21.3685 31.1491C21.4328 31.0897 21.4847 31.0183 21.5213 30.9388C21.5589 30.8596 21.5804 30.7738 21.5846 30.6863C21.5888 30.5987 21.5757 30.5112 21.546 30.4288C21.5162 30.3464 21.4704 30.2707 21.4113 30.206C21.3521 30.1414 21.2808 30.0891 21.2013 30.0521ZM27.908 29.5215C27.7902 29.527 27.6761 29.5638 27.5773 29.6281C27.2655 29.8262 26.9382 29.9988 26.5987 30.1441C26.452 30.2023 26.3308 30.3109 26.2569 30.4504C26.183 30.5898 26.1612 30.751 26.1954 30.9051C26.2296 31.0592 26.3175 31.196 26.4435 31.2911C26.5694 31.3862 26.7251 31.4334 26.8827 31.4241C26.9618 31.4203 27.0398 31.4032 27.1133 31.3735L27.292 31.2934H27.2947L27.3027 31.2881L27.3053 31.2868L27.3107 31.2841H27.316L27.3213 31.2815L27.324 31.2788L27.332 31.2775L27.3347 31.2748L27.3387 31.2721L27.3453 31.2695L27.3493 31.2681L27.356 31.2654L27.3587 31.2641L27.3653 31.2614L27.368 31.2601C27.372 31.2575 27.372 31.2561 27.3747 31.2561L27.3773 31.2548L27.3853 31.2508H27.388L27.396 31.2468L27.404 31.2428L27.4067 31.2415L27.4133 31.2374L27.416 31.2361L27.424 31.2321L27.4253 31.2308L27.4347 31.2295L27.444 31.2241L27.4467 31.2228L27.452 31.2188H27.4547L27.4627 31.2135L27.4733 31.2108L27.4813 31.2055L27.492 31.2001L27.4933 31.1988L27.512 31.1908L27.5213 31.1868L27.54 31.1761L27.5507 31.1721L27.5587 31.1681L27.5787 31.1575L27.5867 31.1535L27.6173 31.1375L27.6267 31.1348L27.6453 31.1241L27.6547 31.1188H27.656C27.6573 31.1175 27.66 31.1161 27.6653 31.1161C27.668 31.1121 27.6707 31.1108 27.6733 31.1095L27.684 31.1041L27.692 31.1001V31.0988L27.7107 31.0908L27.7213 31.0854L27.7227 31.0841L27.7293 31.0801L27.74 31.0748L27.748 31.0708H27.7507L27.7587 31.0655L27.768 31.0601L27.7693 31.0588L27.7773 31.0548L27.7853 31.0508L27.788 31.0495L27.7933 31.0455L27.7973 31.0441L27.804 31.0401L27.8067 31.0388L27.8133 31.0348L27.816 31.0335L27.824 31.0308C27.8227 31.0295 27.824 31.0294 27.8253 31.0294L27.8333 31.0254L27.836 31.0241L27.8413 31.0201L27.844 31.0188L27.852 31.0148L27.8547 31.0135C27.8547 31.0108 27.8573 31.0108 27.86 31.0095L27.864 31.0081L27.8693 31.0055L27.8733 31.0028L27.8787 31.0001L27.8827 30.9974L27.8867 30.9948L27.8907 30.9908L27.8973 30.9895L27.9027 30.9881L27.9053 30.9855L27.9107 30.9828L27.916 30.9788L27.9187 30.9775L27.924 30.9748L27.9293 30.9708L27.9333 30.9681C27.936 30.9695 27.9373 30.9681 27.94 30.9668L27.9427 30.9641L27.948 30.9615L27.952 30.9588L27.956 30.9561L27.9613 30.9535L27.9667 30.9495L27.9693 30.9481C27.972 30.9468 27.9773 30.9468 27.98 30.9441C27.9773 30.9428 27.9773 30.9441 27.98 30.9441L27.9853 30.9401L27.9947 30.9335L27.9973 30.9321L28.0067 30.9281L28.0227 30.9188L28.0333 30.9121C28.0416 30.9062 28.0505 30.9013 28.06 30.8975C28.144 30.8468 28.232 30.7948 28.3147 30.7415C28.4634 30.6462 28.5683 30.4959 28.6063 30.3234C28.6443 30.1509 28.6123 29.9704 28.5173 29.8214C28.4472 29.7263 28.3552 29.6495 28.2492 29.5973C28.1431 29.5451 28.0261 29.5191 27.908 29.5215ZM31.336 23.3641L31.304 23.3655C31.1325 23.3727 30.9705 23.4457 30.8515 23.5694C30.7325 23.6931 30.6659 23.8578 30.6653 24.0294C30.6653 24.3988 30.632 24.7721 30.5693 25.1348C30.5396 25.3093 30.5805 25.4885 30.6828 25.6329C30.7852 25.7773 30.9408 25.8751 31.1153 25.9048C31.2898 25.9345 31.469 25.8936 31.6134 25.7913C31.7578 25.6889 31.8556 25.5333 31.8853 25.3588V25.3521L31.8867 25.3494L31.888 25.3468L31.8867 25.3441L31.888 25.3415V25.3388L31.8893 25.3361V25.3321L31.8907 25.3295V25.3175C31.8933 25.3161 31.8933 25.3134 31.8933 25.3121V25.3041C31.9219 25.1311 31.945 24.9572 31.9627 24.7828L31.9613 24.7815L31.9627 24.7775L31.964 24.7708V24.7561L31.9667 24.7521L31.9653 24.7468V24.7441L31.9667 24.7401V24.7348L31.9693 24.7334L31.9667 24.7295V24.7241C31.9693 24.7228 31.9693 24.7215 31.9693 24.7201V24.6948L31.972 24.6908C31.9901 24.4712 31.9994 24.2497 32 24.0294C31.9996 23.8533 31.9296 23.6845 31.8052 23.5598C31.6808 23.4352 31.5121 23.3648 31.336 23.3641ZM30.7453 26.9588C30.6686 26.9163 30.5844 26.8894 30.4973 26.8796C30.4102 26.8698 30.322 26.8772 30.2378 26.9015C30.1536 26.9257 30.075 26.9664 30.0065 27.021C29.938 27.0757 29.881 27.1434 29.8387 27.2201C29.6597 27.5448 29.4531 27.8535 29.2213 28.1428C29.1124 28.2813 29.0628 28.4573 29.0833 28.6324C29.1039 28.8074 29.1928 28.9671 29.3308 29.0767C29.4688 29.1863 29.6445 29.2369 29.8196 29.2173C29.9948 29.1977 30.155 29.1095 30.2653 28.9721C30.42 28.7775 30.568 28.5735 30.7053 28.3655C30.708 28.3561 30.7147 28.3468 30.72 28.3388L30.7213 28.3375L30.7267 28.3295L30.732 28.3188C30.7347 28.3161 30.7373 28.3135 30.7373 28.3108L30.7387 28.3121L30.744 28.3041V28.3028C30.7465 28.3003 30.7479 28.297 30.748 28.2934L30.7507 28.2921L30.756 28.2841C30.7587 28.2828 30.7587 28.2788 30.76 28.2761L30.7613 28.2748L30.7667 28.2668L30.768 28.2641L30.7707 28.2575L30.7747 28.2548L30.7773 28.2481H30.78L30.7827 28.2401L30.784 28.2374L30.7893 28.2321L30.7907 28.2295C30.792 28.2268 30.792 28.2241 30.7947 28.2228L30.796 28.2188L30.8013 28.2148C30.8013 28.2134 30.8013 28.2121 30.804 28.2108V28.2054L30.808 28.2028L30.812 28.1961L30.8133 28.1935L30.8173 28.1855L30.82 28.1828L30.8227 28.1774L30.8253 28.1734C30.8253 28.1721 30.8253 28.1708 30.828 28.1695C30.828 28.1681 30.828 28.1668 30.8307 28.1655L30.8347 28.1588L30.836 28.1548L30.8387 28.1508L30.8413 28.1468C30.844 28.1455 30.844 28.1441 30.844 28.1428C30.8467 28.1415 30.8467 28.1401 30.8467 28.1375L30.8493 28.1335L30.8533 28.1281L30.8573 28.1228V28.1188L30.86 28.1148L30.864 28.1095L30.868 28.1055V28.1015L30.8733 28.0948V28.0908C30.876 28.0895 30.8773 28.0881 30.8773 28.0854L30.88 28.0828L30.8827 28.0788L30.8867 28.0721L30.8893 28.0681V28.0655L30.8947 28.0588C30.8947 28.0575 30.8947 28.0561 30.8973 28.0548L30.8987 28.0508L30.9027 28.0455L30.9053 28.0401L30.908 28.0361C30.9093 28.0348 30.908 28.0321 30.9107 28.0308C30.9107 28.0295 30.9107 28.0281 30.9133 28.0281L30.916 28.0215L30.9187 28.0188L30.9213 28.0108L30.924 28.0095L30.9267 28.0041L30.9293 28.0014L30.932 27.9948L30.9347 27.9921L30.9373 27.9841C30.94 27.9828 30.9373 27.9815 30.9373 27.9815L30.9427 27.9748L30.944 27.9721L30.9493 27.9655V27.9641L30.9533 27.9561L30.956 27.9535L30.9587 27.9454L30.9653 27.9374L30.9693 27.9295V27.9281L30.9747 27.9188L30.9773 27.9174L31.0107 27.8548C31.0934 27.7006 31.112 27.52 31.0623 27.3522C31.0126 27.1844 30.8987 27.043 30.7453 26.9588Z" fill="#5C913B"/>
<path d="M24 29.3334C26.2091 29.3334 28 28.7365 28 28.0001C28 27.2637 26.2091 26.6667 24 26.6667C21.7909 26.6667 20 27.2637 20 28.0001C20 28.7365 21.7909 29.3334 24 29.3334Z" fill="#55ACEE"/>
<path d="M24.6667 29.3334C25.7713 29.3334 26.6667 28.7365 26.6667 28.0001C26.6667 27.2637 25.7713 26.6667 24.6667 26.6667C23.5621 26.6667 22.6667 27.2637 22.6667 28.0001C22.6667 28.7365 23.5621 29.3334 24.6667 29.3334Z" fill="#FFCC4D"/>
<path d="M25.4893 28.3653C25.3741 28.3643 25.261 28.3337 25.1611 28.2763C25.0611 28.2189 24.9776 28.1368 24.9187 28.0377C24.8597 27.9387 24.8273 27.8262 24.8245 27.7109C24.8217 27.5957 24.8486 27.4817 24.9027 27.3799C25.116 26.9879 25.34 26.6319 25.572 26.3199C25.381 26.3281 25.1899 26.3321 24.9987 26.3319C24.6307 26.3319 24.2947 26.0319 24.2947 25.6639C24.2947 25.2959 24.5547 24.9973 24.924 24.9973L25.0333 24.9986C25.428 24.9986 25.8333 24.9746 26.196 24.9413C26.297 24.9311 26.399 24.9446 26.4939 24.9807C26.5888 25.0168 26.674 25.0745 26.7427 25.1493C26.7613 25.1346 26.78 25.1199 26.8 25.1079C26.9333 25.0199 27.0573 24.9493 27.1733 24.8933C27.2558 24.8297 27.3523 24.7867 27.4547 24.7679L27.5027 24.7586C27.7533 24.6773 27.9293 24.6666 28 24.6666C28.1044 24.6662 28.2075 24.6905 28.3007 24.7374C28.394 24.7843 28.4749 24.8525 28.5369 24.9366C28.5988 25.0206 28.6401 25.1181 28.6573 25.2211C28.6746 25.3241 28.6673 25.4296 28.636 25.5293C28.5267 25.8839 28.2827 25.9639 27.8547 26.0493C27.7428 26.094 27.6364 26.1513 27.5373 26.2199C27.4167 26.2984 27.2742 26.3362 27.1306 26.3281C26.9869 26.3199 26.8497 26.2662 26.7387 26.1746C26.8296 26.2918 26.8786 26.4361 26.8782 26.5844C26.8777 26.7327 26.8276 26.8766 26.736 26.9933C26.5093 27.2826 26.2867 27.6266 26.0747 28.0173C26.0176 28.1227 25.9331 28.2108 25.83 28.272C25.727 28.3333 25.6092 28.3655 25.4893 28.3653ZM23.596 26.2466C23.5666 26.2468 23.5372 26.245 23.508 26.2413C23.0318 26.1795 22.561 26.081 22.1 25.9466C22.016 25.9217 21.9378 25.8805 21.8697 25.8253C21.8017 25.7701 21.7452 25.7021 21.7035 25.6251C21.6617 25.548 21.6356 25.4636 21.6265 25.3764C21.6175 25.2893 21.6257 25.2012 21.6507 25.1173L21.6587 25.0906L21.6427 25.1213C21.5999 25.1977 21.5425 25.265 21.4737 25.3193C21.4049 25.3736 21.3261 25.4137 21.2417 25.4375C21.1574 25.4613 21.0692 25.4682 20.9822 25.4579C20.8952 25.4475 20.8111 25.4201 20.7347 25.3773C20.2917 25.1317 19.8847 24.8262 19.5253 24.4693C19.4039 24.3435 19.3367 24.1751 19.3382 24.0003C19.3397 23.8255 19.4099 23.6583 19.5335 23.5347C19.6571 23.4111 19.8243 23.341 19.9991 23.3395C20.1739 23.338 20.3423 23.4052 20.468 23.5266C20.7307 23.7893 21.0387 24.0199 21.3853 24.2133C21.5212 24.2894 21.6261 24.4107 21.6819 24.5561C21.7377 24.7015 21.7408 24.8618 21.6907 25.0093C21.7607 24.8689 21.878 24.7578 22.0218 24.6953C22.1657 24.6329 22.327 24.6232 22.4773 24.6679C22.8453 24.7773 23.2493 24.8613 23.6773 24.9186C23.8453 24.94 23.9988 25.0244 24.1067 25.1548C24.2147 25.2852 24.269 25.4517 24.2587 25.6207C24.2483 25.7897 24.1741 25.9484 24.051 26.0646C23.928 26.1808 23.7653 26.2459 23.596 26.2466ZM20.3267 23.1279C19.7587 23.1279 19.024 22.9079 18.5787 22.3826C17.896 21.5773 17.4947 20.5439 17.556 19.7519C17.572 19.5399 17.3653 19.3693 17.1627 19.3159C17.0467 19.2853 16.8427 19.2666 16.7467 19.4733C16.7095 19.5536 16.6421 19.6158 16.559 19.6463C16.476 19.6768 16.3843 19.6731 16.304 19.6359C16.2237 19.5988 16.1615 19.5313 16.131 19.4483C16.1005 19.3653 16.1042 19.2736 16.1413 19.1933C16.3493 18.7413 16.816 18.5399 17.3307 18.6706C17.808 18.7946 18.2653 19.2239 18.22 19.8039C18.172 20.4199 18.5213 21.2826 19.0867 21.9506C19.384 22.3026 19.9013 22.4453 20.2533 22.4586C20.54 22.4733 20.6853 22.4079 20.716 22.3799C20.6413 22.2026 19.6533 21.6826 19.232 21.4613C18.8733 21.2733 18.7667 21.0146 18.74 20.8319C18.6507 20.2253 19.2733 19.6106 19.876 19.0186C20.088 18.8093 20.2893 18.6119 20.3987 18.4666C20.5227 18.3026 20.5027 18.1933 20.4787 18.1253C20.3867 17.8759 19.988 17.6293 19.508 17.5226C19.064 17.4239 18.764 17.2093 18.6173 16.8839C18.424 16.4559 18.5267 15.8959 18.9293 15.1706C18.9506 15.1324 18.9792 15.0987 19.0135 15.0715C19.0478 15.0443 19.0871 15.0241 19.1292 15.0121C19.1713 15 19.2154 14.9964 19.2589 15.0015C19.3023 15.0065 19.3444 15.02 19.3827 15.0413C19.4209 15.0626 19.4546 15.0912 19.4818 15.1255C19.509 15.1597 19.5292 15.1991 19.5412 15.2412C19.5532 15.2833 19.5568 15.3273 19.5518 15.3708C19.5468 15.4143 19.5333 15.4564 19.512 15.4946C19.132 16.1773 19.1693 16.4866 19.2253 16.6106C19.2813 16.7333 19.424 16.8199 19.652 16.8706C20.216 16.9959 20.8947 17.3306 21.1027 17.8933C21.2213 18.2146 21.1613 18.5613 20.932 18.8666C20.7933 19.0519 20.5747 19.2666 20.344 19.4946C20 19.8333 19.3587 20.4639 19.4 20.7359C19.408 20.7919 19.4813 20.8413 19.5427 20.8719C20.544 21.3973 21.2093 21.7773 21.3453 22.2426C21.3691 22.322 21.3764 22.4054 21.3668 22.4877C21.3572 22.57 21.3308 22.6495 21.2893 22.7213C21.16 22.9466 20.8907 23.0853 20.5093 23.1199C20.452 23.1253 20.3893 23.1279 20.3267 23.1279Z" fill="#5C913B"/>
<path d="M26 25.3334C26.3682 25.3334 26.6666 24.7365 26.6666 24.0001C26.6666 23.2637 26.3682 22.6667 26 22.6667C25.6318 22.6667 25.3333 23.2637 25.3333 24.0001C25.3333 24.7365 25.6318 25.3334 26 25.3334Z" fill="#FFCC4D"/>
<path d="M23.056 22.9173C23.056 23.3013 22.596 23.612 22.028 23.612C21.4613 23.612 21 23.3013 21 22.9173C21 22.5333 21.46 22.2226 22.028 22.2226C22.5946 22.2226 23.056 22.5333 23.056 22.9173ZM21.4733 16.748C21.54 17.0306 21.1706 17.3613 20.648 17.4853C20.1253 17.6093 19.648 17.48 19.58 17.1973C19.5133 16.9133 19.8826 16.5826 20.404 16.4586C20.928 16.336 21.4066 16.464 21.4733 16.748Z" fill="#FFCC4D"/>
<path d="M30.044 23.9401C30.164 24.0334 30.368 22.9681 30.3373 22.6361C30.3373 22.6134 30.2987 21.9081 30.448 21.4041C30.54 21.2334 30.5453 19.9601 30.404 19.6254C30.516 19.6161 30.6507 19.5801 30.6667 19.4441C30.1493 19.6347 30.028 18.3547 29.5307 17.6187C29.048 16.8814 28.4493 16.4521 27.824 16.0041C27.8761 15.8732 27.9491 15.7516 28.04 15.6441C27.2733 16.0281 26.0787 14.6374 24.3133 14.7414C23.9173 14.7801 23.7293 14.8041 23.628 15.0467C23.2987 15.0734 22.964 15.1481 22.964 15.5814C22.964 15.6854 23.0587 15.8747 23.2693 15.8761C23.5573 15.9601 23.792 15.8947 23.988 16.2974L24.04 16.7134C24.04 16.7134 23.7827 16.3841 23.6413 16.3321L23.728 16.1547C23.5947 16.0774 23.3587 16.1401 23.3587 16.1401C23.3587 16.1401 22.8453 15.9001 22.4333 15.9641L22.3533 15.6307C22.2813 15.8361 22.12 15.8254 22.0973 16.0187C22.052 15.8801 21.992 15.7081 21.9493 15.5694C21.804 15.7667 21.8467 15.9801 21.7947 16.1854C21.7387 16.2334 21.624 16.2347 21.5947 16.1027C21.58 15.9401 21.56 15.9254 21.56 15.7321C21.456 15.9147 21.3307 16.0041 21.2893 16.3174L21.1787 15.9707C21.1827 16.3801 20.8307 16.6241 20.4973 16.9134C20.4027 17.0867 20.512 17.0881 20.52 17.1774L20.696 17.2654L21.012 17.2427C21.064 17.3081 21.0213 17.3134 21.1587 17.3547C21.5267 17.4574 21.9853 17.0161 22.3453 17.7107C22.18 17.8494 22.0133 18.1734 22.0667 18.2347C22.1333 18.2347 21.9333 18.3281 22.2027 18.2427C21.9227 18.5147 21.7333 18.8734 21.7333 18.8947C21.7013 18.9721 21.8453 18.8841 21.816 19.0241L21.8827 19.0161C21.244 19.7067 21.8613 20.4494 21.7933 20.8481C21.9 21.0201 21.9133 20.8441 22.0467 20.8267C22.1587 21.3174 22.4813 21.6147 22.6787 22.0027L22.2627 22.0067C22.272 22.1907 22.4387 22.3654 22.5707 22.5267L22.292 22.6147C22.1128 22.7041 21.9532 22.8283 21.8227 22.9801C21.7307 23.2041 22.2667 23.2574 22.5253 23.2974L22.516 23.5681C22.92 23.6067 23.3867 23.4867 23.3867 23.4641L23.488 23.3854L23.716 23.5107C23.792 23.5107 23.9107 23.2067 23.856 22.9734C24.0027 23.1481 24.1413 23.4294 24.288 23.6054L24.4253 23.5867C24.5507 23.7854 24.7227 23.9827 24.848 24.1814L24.988 24.2347C25.0693 24.2067 25.1387 24.1974 25.1827 24.0374L25.2467 24.1494L25.468 23.9974L25.6227 23.9667L25.7387 24.1561C25.8067 24.1307 25.8734 23.9827 25.8773 23.8254C25.9467 23.9627 25.9653 23.9521 26.016 23.9881L26.1187 23.7721L26.672 24.2894L27.0907 24.3134C27.24 24.4147 27.6493 24.4787 27.7187 24.3147C28.0547 24.4587 28.4507 24.2961 28.4307 24.1361C28.74 24.2587 29.216 24.1761 29.216 24.1561C29.2733 24.1494 29.42 24.0054 29.2813 23.8974C28.2587 23.1854 26.7427 22.0067 26.1573 21.7227C26.1573 21.5121 25.9987 20.7534 25.828 20.5454L25.9667 20.3134C26.3653 20.6854 26.5093 20.6494 26.7213 20.7081C26.948 20.8881 27.0267 21.1614 27.2533 21.4107L27.456 21.4481C27.2908 21.0143 27.0395 20.6183 26.7173 20.2841C26.936 20.3934 27.2987 20.6854 27.5413 20.8974C27.7013 21.1654 27.748 21.3787 27.8947 21.7147C28.0013 21.7827 28.1107 22.0321 28.096 21.8254C28.0707 21.4374 27.7973 20.8227 27.7973 20.7787C28.232 21.1227 28.2267 21.6587 28.3587 21.9854C28.4693 22.1507 28.5253 22.3721 28.5733 22.3201L28.4453 21.3121L28.3707 20.9427C28.692 21.1281 28.8067 21.8347 28.9573 22.6827C28.9573 22.8174 29.012 22.9654 29.004 23.0521C29.0733 23.1374 29.152 23.3734 29.1507 23.2334C29.1507 23.2334 29.1507 21.8547 29.056 21.5387C29.032 21.3694 29.096 21.0947 29.096 21.0947C29.2133 21.6667 29.3387 22.2867 29.4573 22.8574V23.2774L29.6333 23.4547C29.6667 23.1081 29.7067 22.7641 29.7413 22.4201L29.6094 21.1867V20.8347C29.6067 20.7107 29.7227 20.7334 29.796 20.8747C29.8133 21.1774 29.8133 21.4134 29.8253 21.7147C29.8773 22.0587 29.9133 22.3107 29.9387 22.7494C29.9533 23.1041 29.9693 23.9547 30.044 23.9401Z" fill="#C1694F"/>
</g>
<defs>
<clipPath id="clip0_4118_47459">
<rect width="48" height="48" fill="white"/>
</clipPath>
</defs>
</svg>
